<?xml version="1.0" encoding="UTF-8" standalone="no"?>
<!DOCTYPE svg PUBLIC "-//W3C//DTD SVG 1.1//EN" "http://www.w3.org/Graphics/SVG/1.1/DTD/svg11.dtd">
<svg width="100%" height="100%" viewBox="0 0 603 255" version="1.1" xmlns="http://www.w3.org/2000/svg" xmlns:xlink="http://www.w3.org/1999/xlink" xml:space="preserve" xmlns:serif="http://www.serif.com/" style="fill-rule:evenodd;clip-rule:evenodd;">
    <g transform="matrix(1,0,0,1,-3.5936e-06,-23.0488)">
        <g transform="matrix(1,0,0,1,1.03078,-1.26367)">
            <g>
                <g>
                    <g transform="matrix(1,0,0,1,600.8,270.5)">
                        <path d="M0,0L-600.8,0" style="fill:none;fill-rule:nonzero;stroke:black;stroke-width:0.5px;stroke-dasharray:2,2;"/>
                    </g>
                    <g transform="matrix(1,0,0,1,3.17432,266.5)">
                        <text x="0px" y="0px" style="font-family:'ArialMT', 'Arial';font-size:10px;">1K</text>
                    </g>
                </g>
                <g>
                    <g transform="matrix(1,0,0,1,600.8,223.5)">
                        <path d="M0,0L-600.8,0" style="fill:none;fill-rule:nonzero;stroke:black;stroke-width:0.5px;stroke-dasharray:2,2;"/>
                    </g>
                    <g transform="matrix(1,0,0,1,3.1232,219.5)">
                        <text x="0px" y="0px" style="font-family:'ArialMT', 'Arial';font-size:10px;">1.5K</text>
                    </g>
                </g>
                <g>
                    <g transform="matrix(1,0,0,1,600.8,176.5)">
                        <path d="M0,0L-600.8,0" style="fill:none;fill-rule:nonzero;stroke:black;stroke-width:0.5px;stroke-dasharray:2,2;"/>
                    </g>
                    <g transform="matrix(1,0,0,1,3.87719,172.5)">
                        <text x="0px" y="0px" style="font-family:'ArialMT', 'Arial';font-size:10px;">2K</text>
                    </g>
                </g>
                <g>
                    <g transform="matrix(1,0,0,1,600.8,129.5)">
                        <path d="M0,0L-600.8,0" style="fill:none;fill-rule:nonzero;stroke:black;stroke-width:0.5px;stroke-dasharray:2,2;"/>
                    </g>
                    <g transform="matrix(1,0,0,1,3.90738,125.5)">
                        <text x="0px" y="0px" style="font-family:'ArialMT', 'Arial';font-size:10px;">2.5K</text>
                    </g>
                </g>
                <g>
                    <g transform="matrix(1,0,0,1,600.8,82.5)">
                        <path d="M0,0L-600.8,0" style="fill:none;fill-rule:nonzero;stroke:black;stroke-width:0.5px;stroke-dasharray:2,2;"/>
                    </g>
                    <g transform="matrix(1,0,0,1,3.73884,78.5)">
                        <text x="0px" y="0px" style="font-family:'ArialMT', 'Arial';font-size:10px;">3K</text>
                    </g>
                </g>
                <g>
                    <g transform="matrix(1,0,0,1,600.8,35.5)">
                        <path d="M0,0L-600.8,0" style="fill:none;fill-rule:nonzero;stroke:black;stroke-width:0.5px;stroke-dasharray:2,2;"/>
                    </g>
                    <g transform="matrix(1,0,0,1,3.75481,31.5)">
                        <text x="0px" y="0px" style="font-family:'ArialMT', 'Arial';font-size:10px;">3.5K</text>
                    </g>
                </g>
            </g>
            <g>
                <g>
                    <path d="M32.412,270L32.412,276" style="fill:none;fill-rule:nonzero;stroke:rgb(153,153,153);stroke-width:0.5px;"/>
                    <g transform="matrix(1,0,0,1,21.289,278.52)">
                        <text x="0px" y="0px" style="font-family:'ArialMT', 'Arial';font-size:10px;fill:rgb(153,153,153);">2012</text>
                    </g>
                </g>
                <g>
                    <path d="M122.896,270L122.896,276" style="fill:none;fill-rule:nonzero;stroke:rgb(153,153,153);stroke-width:0.5px;"/>
                    <g transform="matrix(1,0,0,1,111.773,278.52)">
                        <text x="0px" y="0px" style="font-family:'ArialMT', 'Arial';font-size:10px;fill:rgb(153,153,153);">2014</text>
                    </g>
                </g>
                <g>
                    <path d="M213.256,270L213.256,276" style="fill:none;fill-rule:nonzero;stroke:rgb(153,153,153);stroke-width:0.5px;"/>
                    <g transform="matrix(1,0,0,1,202.133,278.52)">
                        <text x="0px" y="0px" style="font-family:'ArialMT', 'Arial';font-size:10px;fill:rgb(153,153,153);">2016</text>
                    </g>
                </g>
                <g>
                    <path d="M303.74,270L303.74,276" style="fill:none;fill-rule:nonzero;stroke:rgb(153,153,153);stroke-width:0.5px;"/>
                    <g transform="matrix(1,0,0,1,292.617,278.52)">
                        <text x="0px" y="0px" style="font-family:'ArialMT', 'Arial';font-size:10px;fill:rgb(153,153,153);">2018</text>
                    </g>
                </g>
                <g>
                    <path d="M394.106,270L394.106,276" style="fill:none;fill-rule:nonzero;stroke:rgb(153,153,153);stroke-width:0.5px;"/>
                    <g transform="matrix(1,0,0,1,382.983,278.52)">
                        <text x="0px" y="0px" style="font-family:'ArialMT', 'Arial';font-size:10px;fill:rgb(153,153,153);">2020</text>
                    </g>
                </g>
                <g>
                    <path d="M484.59,270L484.59,276" style="fill:none;fill-rule:nonzero;stroke:rgb(153,153,153);stroke-width:0.5px;"/>
                    <g transform="matrix(1,0,0,1,473.467,278.52)">
                        <text x="0px" y="0px" style="font-family:'ArialMT', 'Arial';font-size:10px;fill:rgb(153,153,153);">2022</text>
                    </g>
                </g>
                <g>
                    <path d="M574.95,270L574.95,276" style="fill:none;fill-rule:nonzero;stroke:rgb(153,153,153);stroke-width:0.5px;"/>
                    <g transform="matrix(1,0,0,1,563.827,278.52)">
                        <text x="0px" y="0px" style="font-family:'ArialMT', 'Arial';font-size:10px;fill:rgb(153,153,153);">2024</text>
                    </g>
                </g>
            </g>
            <g>
                <path d="M31.901,224L35.739,230L39.329,229L46.879,229L50.716,228L54.43,226L58.267,224L62.104,224L65.817,223L69.655,222L73.368,220L77.205,218L81.043,219L84.508,218L88.346,217L92.059,216L95.896,214L99.61,211L103.447,211L107.284,210L110.998,208L114.835,209L122.385,209L126.223,204L129.689,203L133.526,203L137.239,201L141.076,204L144.79,203L148.627,195L152.464,200L156.178,199L160.015,195L163.728,195L167.566,198L171.403,194L174.869,193L178.706,190L182.419,191L186.257,188L189.97,189L193.807,189L197.644,184L201.358,181L205.195,185L208.909,178L212.746,176L216.583,184L220.173,170L224.01,173L227.723,176L231.561,171L235.274,170L239.111,171L242.948,167L254.212,167L258.05,166L261.887,165L265.353,160L269.19,165L272.903,163L276.741,161L280.454,163L284.291,164L288.129,154L291.842,160L295.679,160L299.393,155L303.23,158L307.067,157L310.533,154L314.37,153L318.084,153L321.921,152L325.634,150L329.471,148L333.309,149L337.022,148L340.859,146L344.573,145L348.41,144L352.247,145L355.713,147L359.55,145L363.264,144L367.101,142L370.814,144L374.652,139L378.489,140L382.202,139L386.04,136L389.753,137L393.59,134L397.427,132L401.017,136L404.854,133L408.568,145L412.405,147L416.118,134L419.956,136L423.793,127L427.506,130L431.343,129L435.057,134L438.894,132L442.731,129L446.197,124L450.034,125L453.748,122L457.585,125L461.299,126L465.136,126L468.973,130L472.686,127L476.524,126L480.237,131L484.074,120L487.911,120L491.377,118L495.215,112L498.928,106L502.765,104L506.479,98L510.316,98L514.153,95L517.867,91L521.704,90L525.417,87L529.254,92L533.092,85L536.558,82L540.395,82L544.108,85L547.945,78L551.659,77L555.496,77L559.333,65L563.047,71L566.884,69L570.597,65L574.435,63L578.272,60L581.862,64L585.699,50L589.412,53L593.249,56L596.963,52L600.8,42" style="fill:none;fill-rule:nonzero;stroke:rgb(115,188,166);stroke-width:2px;stroke-linecap:round;stroke-linejoin:round;"/>
            </g>
        </g>
    </g>
</svg>
