<?xml version="1.0" encoding="UTF-8" standalone="no"?>
<!DOCTYPE svg PUBLIC "-//W3C//DTD SVG 1.1//EN" "http://www.w3.org/Graphics/SVG/1.1/DTD/svg11.dtd">
<svg width="100%" height="100%" viewBox="0 0 603 254" version="1.1" xmlns="http://www.w3.org/2000/svg" xmlns:xlink="http://www.w3.org/1999/xlink" xml:space="preserve" xmlns:serif="http://www.serif.com/" style="fill-rule:evenodd;clip-rule:evenodd;">
    <g transform="matrix(1,0,0,1,-3.5936e-06,-23.9164)">
        <g transform="matrix(1,0,0,1,1.03078,-1.26367)">
            <g>
                <g>
                    <g transform="matrix(1,0,0,1,600.8,270.5)">
                        <path d="M0,0L-600.8,0" style="fill:none;fill-rule:nonzero;stroke:black;stroke-width:0.5px;stroke-dasharray:2,2;"/>
                    </g>
                    <g transform="matrix(1,0,0,1,3.12348,267.871)">
                        <text x="0px" y="0px" style="font-family:'ArialMT', 'Arial';font-size:10px;">2</text>
                    </g>
                </g>
                <g>
                    <g transform="matrix(1,0,0,1,600.8,231.5)">
                        <path d="M0,0L-600.8,0" style="fill:none;fill-rule:nonzero;stroke:black;stroke-width:0.5px;stroke-dasharray:2,2;"/>
                    </g>
                    <g transform="matrix(1,0,0,1,3.28118,229.414)">
                        <text x="0px" y="0px" style="font-family:'ArialMT', 'Arial';font-size:10px;">4</text>
                    </g>
                </g>
                <g>
                    <g transform="matrix(1,0,0,1,600.8,192.5)">
                        <path d="M0,0L-600.8,0" style="fill:none;fill-rule:nonzero;stroke:black;stroke-width:0.5px;stroke-dasharray:2,2;"/>
                    </g>
                    <g transform="matrix(1,0,0,1,3.01783,190.151)">
                        <text x="0px" y="0px" style="font-family:'ArialMT', 'Arial';font-size:10px;">6</text>
                    </g>
                </g>
                <g>
                    <g transform="matrix(1,0,0,1,600.8,153.5)">
                        <path d="M0,0L-600.8,0" style="fill:none;fill-rule:nonzero;stroke:black;stroke-width:0.5px;stroke-dasharray:2,2;"/>
                    </g>
                    <g transform="matrix(1,0,0,1,3.08176,150.77)">
                        <text x="0px" y="0px" style="font-family:'ArialMT', 'Arial';font-size:10px;">8</text>
                    </g>
                </g>
                <g>
                    <g transform="matrix(1,0,0,1,600.8,113.5)">
                        <path d="M0,0L-600.8,0" style="fill:none;fill-rule:nonzero;stroke:black;stroke-width:0.5px;stroke-dasharray:2,2;"/>
                    </g>
                    <g transform="matrix(1,0,0,1,2.28709,110.04)">
                        <text x="0px" y="0px" style="font-family:'ArialMT', 'Arial';font-size:10px;">10</text>
                    </g>
                </g>
                <g>
                    <g transform="matrix(1,0,0,1,600.8,74.5)">
                        <path d="M0,0L-600.8,0" style="fill:none;fill-rule:nonzero;stroke:black;stroke-width:0.5px;stroke-dasharray:2,2;"/>
                    </g>
                    <g transform="matrix(1,0,0,1,2.33239,71.0223)">
                        <text x="0px" y="0px" style="font-family:'ArialMT', 'Arial';font-size:10px;">12</text>
                    </g>
                </g>
                <g>
                    <g transform="matrix(1,0,0,1,600.8,35.5)">
                        <path d="M0,0L-600.8,0" style="fill:none;fill-rule:nonzero;stroke:black;stroke-width:0.5px;stroke-dasharray:2,2;"/>
                    </g>
                    <g transform="matrix(1,0,0,1,2.33668,32.3676)">
                        <text x="0px" y="0px" style="font-family:'ArialMT', 'Arial';font-size:10px;">14</text>
                    </g>
                </g>
            </g>
            <g>
                <g>
                    <path d="M22.066,270L22.066,276" style="fill:none;fill-rule:nonzero;stroke:rgb(153,153,153);stroke-width:0.5px;"/>
                    <g transform="matrix(1,0,0,1,10.943,278.52)">
                        <text x="0px" y="0px" style="font-family:'ArialMT', 'Arial';font-size:10px;fill:rgb(153,153,153);">1970</text>
                    </g>
                </g>
                <g>
                    <path d="M166.856,270L166.856,276" style="fill:none;fill-rule:nonzero;stroke:rgb(153,153,153);stroke-width:0.5px;"/>
                    <g transform="matrix(1,0,0,1,155.733,278.52)">
                        <text x="0px" y="0px" style="font-family:'ArialMT', 'Arial';font-size:10px;fill:rgb(153,153,153);">1980</text>
                    </g>
                </g>
                <g>
                    <path d="M311.684,270L311.684,276" style="fill:none;fill-rule:nonzero;stroke:rgb(153,153,153);stroke-width:0.5px;"/>
                    <g transform="matrix(1,0,0,1,300.561,278.52)">
                        <text x="0px" y="0px" style="font-family:'ArialMT', 'Arial';font-size:10px;fill:rgb(153,153,153);">1990</text>
                    </g>
                </g>
                <g>
                    <path d="M456.474,270L456.474,276" style="fill:none;fill-rule:nonzero;stroke:rgb(153,153,153);stroke-width:0.5px;"/>
                    <g transform="matrix(1,0,0,1,445.351,278.52)">
                        <text x="0px" y="0px" style="font-family:'ArialMT', 'Arial';font-size:10px;fill:rgb(153,153,153);">2000</text>
                    </g>
                </g>
            </g>
            <g>
                <path d="M21.562,186L93.956,175L166.351,166L238.786,155L311.181,145L383.576,140L455.971,138L528.405,125L600.8,123" style="fill:none;fill-rule:nonzero;stroke:rgb(147,0,0);stroke-width:2px;stroke-linecap:round;stroke-linejoin:round;"/>
                <path d="M21.562,245L93.956,252L166.351,250L238.786,232L311.181,217L383.576,200L455.971,181L528.405,166L600.8,155" style="fill:none;fill-rule:nonzero;stroke:rgb(213,29,18);stroke-width:2px;stroke-linecap:round;stroke-linejoin:round;"/>
                <path d="M21.562,190L93.956,181L166.351,173L238.786,159L311.181,145L383.576,137L455.971,132L528.405,120L600.8,118" style="fill:none;fill-rule:nonzero;stroke:rgb(246,128,75);stroke-width:2px;stroke-linecap:round;stroke-linejoin:round;"/>
                <path d="M21.562,188L93.956,170L166.351,150L238.786,133L311.181,116L383.576,104L455.971,93L528.405,85L600.8,73" style="fill:none;fill-rule:nonzero;stroke:rgb(250,197,118);stroke-width:2px;stroke-linecap:round;stroke-linejoin:round;"/>
                <path d="M21.562,243L93.956,229L166.351,213L238.786,196L383.576,168L455.971,159L528.405,144L600.8,137" style="fill:none;fill-rule:nonzero;stroke:rgb(157,202,156);stroke-width:2px;stroke-linecap:round;stroke-linejoin:round;"/>
                <path d="M21.562,98L93.956,85L166.351,74L238.786,73L311.181,70L383.576,63L455.971,62L528.405,57L600.8,51" style="fill:none;fill-rule:nonzero;stroke:rgb(68,146,180);stroke-width:2px;stroke-linecap:round;stroke-linejoin:round;"/>
                <path d="M21.562,219L93.956,215L166.351,209L238.786,209L311.181,176L383.576,147L455.971,159L528.405,140L600.8,119" style="fill:none;fill-rule:nonzero;stroke:rgb(94,79,162);stroke-width:2px;stroke-linecap:round;stroke-linejoin:round;"/>
            </g>
        </g>
    </g>
</svg>
